<?xml version="1.0" encoding="UTF-8"?>
<svg width="119px" height="65px" viewBox="0 0 119 65" version="1.1" xmlns="http://www.w3.org/2000/svg" xmlns:xlink="http://www.w3.org/1999/xlink">
    <!-- Generator: Sketch 57.1 (83088) - https://sketch.com -->
    <title>LOGO</title>
    <desc>Created with Sketch.</desc>
    <g id="Page-1" stroke="none" stroke-width="1" fill="none" fill-rule="evenodd">
        <g id="Home" transform="translate(-31.000000, -32.000000)">
            <g id="LOGO" transform="translate(31.000000, 32.000000)">
                <g id="WARS" transform="translate(1.550883, 41.488761)">
                    <path d="M75.6268565,5.84680636 C74.7947447,5.84680636 73.7516539,5.84844746 72.7085631,5.84491814 C72.5517799,5.84437753 72.4518013,5.84542784 72.4521273,6.063169 C72.4546056,7.6490625 72.4451491,9.23502164 72.4304315,10.8208495 C72.4287142,11.0122674 72.4797796,11.083885 72.6765412,11.1071886 C74.8215492,11.3612966 76.970405,11.3275556 79.1196521,11.1954798 C79.6010887,11.16594 80.0493947,10.9956595 80.4570701,10.724681 C81.3861605,10.1069709 81.8053795,9.04353808 81.5546177,7.95837704 C81.3491169,7.06916336 80.4198961,5.99982254 79.2909788,5.94592881 C78.1394963,5.89091913 76.9881442,5.91789882 75.6268565,5.84680636 M72.487997,14.8720036 C72.487997,15.679031 72.4911275,16.4427333 72.4873449,17.2064356 C72.4781492,19.1098492 72.4587143,21.0133284 72.4622361,22.9167419 C72.4627578,23.213059 72.3775184,23.2725324 72.0975391,23.2697424 C70.0545315,23.2482441 68.011263,23.2418767 65.9680598,23.2418767 C65.752972,23.2418767 65.7015805,23.1818124 65.7013197,22.9701105 C65.6919283,15.9033365 65.6769935,8.83662818 65.6568353,1.76991984 C65.6561891,1.55729891 65.7090806,1.49375551 65.9264509,1.49395245 C70.8390344,1.50025427 75.7517483,1.47557212 80.6641361,1.50721253 C83.9937572,1.52861248 87.2123778,4.32117406 87.7157928,7.636984 C87.9716415,9.32206559 87.3638132,10.8073268 86.2705048,12.0724837 C85.4723714,12.9960949 84.5026504,13.7148967 83.3972767,14.2419524 C82.553491,14.6442845 82.5483388,14.6897102 83.1607324,15.3871121 C83.1894933,15.4199341 83.2181239,15.4528217 83.2477979,15.484856 C84.4868025,16.8270133 84.7577166,16.9546909 86.8965288,16.9829835 C90.6457602,17.0326103 94.3952524,17.0343827 98.1446793,17.0023484 C98.8513776,16.9963748 99.5536411,16.9325689 100.257861,16.8830733 C101.141886,16.8210397 101.72904,15.5210258 101.24356,14.8223767 C100.869016,14.2834394 100.461927,13.7744358 100.051056,13.2655635 C99.2013354,12.2130932 98.2119839,11.2864624 97.3946765,10.2018922 C95.6253221,7.8537405 96.0866717,4.58283106 97.9296568,2.83801343 C98.8850299,1.9335047 100.038273,1.48351505 101.317322,1.31238113 C101.781541,1.25021626 102.248303,1.24082917 102.716109,1.24096045 C107.139626,1.24260155 111.563142,1.24516167 115.986659,1.234523 C116.276812,1.2338709 116.340921,1.30745783 116.337959,1.59241845 C116.319725,3.27704053 116.317769,4.9617939 116.325921,6.64648162 C116.32716,6.90177115 116.26416,6.96977834 116.006941,6.96892497 C112.550798,6.9570434 109.09459,6.96695565 105.638577,6.94398025 C105.146314,6.94069805 104.889357,7.16067111 104.719986,7.56333143 C104.478355,8.13778211 104.457681,8.67566908 104.841682,9.23403698 C105.739925,10.5401557 106.773168,11.7377649 107.738976,12.9893335 C108.171956,13.5505241 108.606762,14.1104675 109.040524,14.6711329 C110.158094,16.1159574 110.222398,17.6972559 109.611244,19.3496467 C109.094394,20.746945 108.124543,21.7750614 106.892125,22.5599668 C106.259644,22.9627584 105.525098,23.0372643 104.799487,23.1015954 C102.620239,23.2947857 100.434079,23.2520515 98.250658,23.2569092 C93.2952265,23.2676748 88.3397299,23.2790968 83.3843636,23.1804339 C82.336251,23.1594934 81.4389216,22.8751236 80.6196577,22.2236725 C78.9022165,20.8582116 77.3349716,19.3273278 75.743857,17.8217169 C74.801723,16.9302057 73.8520239,16.0466374 72.9031725,15.1622814 C72.7945851,15.0609927 72.6943456,14.9430304 72.487997,14.8720036" id="Fill-15" fill="#010000"></path>
                    <path d="M24.238419,10.8000326 C24.4904537,10.1012091 24.733246,9.44638726 24.9630598,8.78702036 C25.7911364,6.41046707 26.618623,4.03371616 27.4347698,1.653013 C27.5174922,1.41159645 27.611489,1.31134106 27.8853515,1.3135148 C29.7314648,1.32820399 31.5777092,1.32464697 33.4238881,1.31713769 C33.6770371,1.31608376 33.7652001,1.34295906 33.6655006,1.63351524 C31.2265649,8.74446781 28.7952328,15.8579893 26.3711112,22.9740798 C26.2923872,23.2053523 26.1876404,23.2691152 25.9557947,23.2670074 C24.7323939,23.2557435 23.5086654,23.2513301 22.2854613,23.2698342 C22.0134998,23.2737921 21.9103261,23.1790698 21.8275381,22.935743 C20.3789121,18.6783143 18.9222235,14.4235205 17.463503,10.169583 C17.4378079,10.0948196 17.454785,9.98685734 17.3251297,9.9402208 C16.9444885,10.9863812 16.5637817,12.0301702 16.1848447,13.074552 C15.0018875,16.3349599 13.8181437,19.5951044 12.6405614,22.8574226 C12.575406,23.0379745 12.4927491,23.1058215 12.2947265,23.1043064 C11.0384859,23.09436 9.78211414,23.093833 8.52593904,23.1047017 C8.32470456,23.1064802 8.24676716,23.0336271 8.18620017,22.8545902 C5.78554493,15.7539793 3.38213665,8.65435653 0.970796974,1.55743444 C0.877258992,1.28229203 0.929829042,1.2342722 1.20375702,1.23598484 C3.04987034,1.24744637 4.89611475,1.24830269 6.74222807,1.23954187 C6.97446708,1.23842206 7.07691969,1.30501746 7.1561025,1.5302298 C8.19006755,4.4722182 9.23563471,7.40992501 10.2791043,10.348554 C10.3327887,10.4998593 10.3935523,10.6487273 10.4841406,10.8852036 C10.6288721,10.4824694 10.7461387,10.1633911 10.8584892,9.8424685 C11.8270366,7.0745108 12.7970917,4.30714593 13.7581011,1.53655339 C13.8336787,1.31878446 13.9257746,1.23341588 14.1692224,1.23451872 C16.2775305,1.24612895 18.3859042,1.24652418 20.4941467,1.23451872 C20.751753,1.23308653 20.8387362,1.32431761 20.9180501,1.55657812 C21.8587393,4.31063708 22.7432534,7.08472077 23.7843632,9.80347297 C23.9080536,10.1263717 24.0198796,10.4561869 24.238419,10.8000326" id="Fill-19" fill="#010100"></path>
                    <path d="M46.7823928,4.22445136 C46.7532379,4.28552237 46.7375794,4.31226976 46.7271622,4.3408618 C45.4814934,7.76347388 44.239428,11.1874036 42.9852421,14.6068534 C42.8744533,14.9089803 43.0493829,14.8507422 43.2089816,14.8504128 C45.4790693,14.8461305 47.749157,14.8345356 50.0191793,14.8448129 C50.3326111,14.8462623 50.3453213,14.7716199 50.2553669,14.5076377 C49.3768536,11.929479 48.5083644,9.34789451 47.6375821,6.76710059 C47.3548776,5.92930113 47.0737455,5.09097462 46.7823928,4.22445136 M33.9850835,22.8189615 C33.9647078,22.7045274 34.0266866,22.6081446 34.0610829,22.5077431 C36.4915555,15.4296321 38.9245177,8.35237766 41.3508628,1.27275149 C41.4245035,1.05798179 41.5069235,0.967989338 41.752218,0.96851638 C44.9835666,0.975433809 48.2149152,0.971942154 51.4463293,0.959086301 C51.6982409,0.958107297 51.7968436,1.0365707 51.8785429,1.27347618 C54.3284084,8.37912505 56.7871187,15.4817434 59.2441911,22.5849547 C59.3738486,22.9598794 59.3726038,22.9598135 58.9901173,22.9616582 C57.167181,22.9703544 55.3441136,22.9742413 53.5211773,22.9943012 C53.2670381,22.99697 53.1467494,22.942487 53.070488,22.6752766 C52.8091419,21.7600019 52.5075031,20.856454 52.2338399,19.9445392 C52.1736956,19.7439337 52.0822343,19.680491 51.8702878,19.6791734 C48.3883378,19.6565106 44.9063224,19.6268645 41.4245035,19.5873363 C41.155623,19.58424 41.0314689,19.6478803 40.9560592,19.925368 C40.7065716,20.8441343 40.4207223,21.7528869 40.1546591,22.6671733 C40.1107629,22.8178415 40.0637874,22.9097445 39.8745752,22.9070434 C37.9318089,22.8790443 35.9889115,22.8611907 34.0460796,22.839582 C34.0270142,22.8393844 34.0080144,22.8269989 33.9850835,22.8189615" id="Fill-25" fill="#010100"></path>
                </g>
                <g id="STAR" transform="translate(0.999969, 0.002547)">
                    <path d="M37.40992,0.38151495 C43.1119194,0.38151495 48.8139844,0.384017885 54.5160494,0.374660573 C54.8162547,0.374137881 54.9189013,0.422286433 54.914644,0.755769498 C54.8936001,2.32517519 54.8983195,3.89510781 54.9118222,5.46471109 C54.914644,5.73496213 54.8517156,5.8113675 54.5742551,5.81051123 C51.2098585,5.80017016 47.8453308,5.81011603 44.4809342,5.79430802 C44.1343872,5.79266136 44.0789999,5.89547926 44.0795899,6.21315432 C44.0894875,11.4820945 44.083326,16.7509689 44.0947968,22.0199091 C44.0955178,22.3456858 44.006636,22.4121453 43.6979752,22.4099761 C41.7864279,22.3947565 39.874684,22.3962714 37.9630712,22.4087861 C37.6877082,22.4104986 37.6217024,22.3331052 37.6220956,22.0619321 C37.6301579,16.7710582 37.6245209,11.4801844 37.6365815,6.18937645 C37.6373681,5.85319285 37.5527469,5.78008082 37.2264539,5.78225442 C33.1741415,5.8095891 29.1217635,5.81900803 25.0693855,5.83705551 C23.9687858,5.84199551 23.3842376,6.35509704 23.2820498,7.38294678 C23.2465233,7.73987839 23.3724391,8.05030811 23.5483673,8.34690583 C24.0025425,9.11234267 24.5587088,9.80414054 25.1016347,10.5047646 C26.0204726,11.6905626 26.907979,12.9007314 27.8221631,14.08923 C28.7792804,15.3337153 28.8768799,16.6752222 28.4638682,18.1034097 C28.0139536,19.6585882 27.1257261,20.8854871 25.701062,21.7071082 C24.848951,22.1984737 23.9201499,22.259598 22.9836799,22.3132135 C21.1832347,22.416229 19.3802333,22.3909362 17.5782151,22.393966 C11.974405,22.4033191 6.37066057,22.3973253 0.76691609,22.4099761 C0.444752564,22.4106962 0.375076099,22.3230276 0.37789462,22.0104902 C0.393953636,20.2323529 0.394609106,18.4539522 0.377238074,16.6758809 C0.374289535,16.3607087 0.473199964,16.3068298 0.758984902,16.307225 C6.6904644,16.315129 12.6220094,16.316578 18.5535545,16.3083447 C19.1967017,16.3074226 19.6130563,15.8777741 19.9047404,15.366451 C20.1903943,14.8657324 20.2324099,14.3303021 19.8576777,13.8212843 C19.1352186,12.8398047 18.287958,11.9657537 17.5027705,11.0384824 C17.0358136,10.4870464 16.5836704,9.92276645 16.1103555,9.37699504 C14.9006199,7.98200435 14.7154497,6.38816212 15.2665033,4.69275345 C15.8842838,2.79197244 17.0605904,1.37689241 18.9910152,0.693920674 C19.5311881,0.502775532 20.0921393,0.437896839 20.6647579,0.437501639 C24.0072619,0.434537638 27.3498314,0.4241307 30.6923353,0.419585899 C32.9314865,0.416556031 35.1707032,0.418993098 37.40992,0.418993098 L37.40992,0.38151495 Z" id="Fill-17" fill="#010100"></path>
                    <path d="M96.4083269,10.4388957 C97.2361985,10.4195405 98.2701883,10.4277418 99.3043743,10.4060246 C100.070489,10.3899499 100.611794,10.0391283 101.120359,9.52244228 C102.013517,8.61484635 102.001492,6.2064661 100.362414,5.47490428 C99.7596122,5.20589949 99.1436098,5.07782696 98.4981994,5.07139709 C96.625751,5.05276359 94.7531719,5.05099209 92.8807235,5.03276788 C92.666567,5.03078393 92.6056595,5.09029304 92.6068358,5.3068747 C92.6156582,6.92457768 92.6165732,8.5424775 92.6061613,10.1601805 C92.6046792,10.3986762 92.6838197,10.4458504 92.9033351,10.4437509 C94.0028725,10.4331875 95.1026712,10.4388957 96.4083269,10.4388957 M92.7093721,14.106284 C92.7093721,14.3012797 92.70898,14.4187888 92.7094375,14.536298 C92.7200244,17.051296 92.7271477,19.566294 92.7470145,22.0811608 C92.7489751,22.3340253 92.6898321,22.4113806 92.4277729,22.4099569 C90.3039831,22.3989801 88.1801278,22.4004891 86.0562726,22.4087561 C85.8342085,22.4096747 85.7640857,22.3608601 85.7640857,22.1248576 C85.770687,15.0609886 85.770687,7.99711948 85.7640857,0.933250404 C85.7640857,0.696657407 85.8353195,0.649023875 86.0567954,0.650120325 C91.0772862,0.675137023 96.097777,0.642987669 101.118595,0.721786391 C103.67769,0.762005888 105.60523,1.8147988 107.030479,3.90654072 C107.498787,4.59388078 107.722615,5.34965303 107.835542,6.16204751 C108.078846,7.91136601 107.803912,9.53484275 106.740776,10.9800546 C106.143137,11.7925147 105.385388,12.4255945 104.523076,12.9356539 C104.045423,13.2181089 103.567638,13.5019418 103.075934,13.7581524 C102.824593,13.889243 102.793094,14.0158065 102.957975,14.2359312 C103.533329,15.0041695 104.248143,15.6238647 105.007003,16.1980259 C105.122022,16.285026 105.256449,16.262259 105.385257,16.2640305 C109.054934,16.3159287 112.724546,16.3718949 116.394354,16.4091619 C116.716014,16.4124424 116.781169,16.5044289 116.784698,16.8078138 C116.805219,18.5789808 116.844233,20.3500821 116.888607,22.1208554 C116.894358,22.3506905 116.832993,22.4099569 116.603609,22.4090186 C112.562998,22.3937968 108.52232,22.3903195 104.481708,22.3769348 C103.904917,22.3750977 103.328452,22.328842 102.75153,22.3144732 C102.10906,22.2985298 101.548803,22.0843101 101.034161,21.6961559 C99.8301917,20.7882319 98.71497,19.7775612 97.6157594,18.7493724 C96.0938559,17.3258777 94.5888131,15.8842745 93.076451,14.4505445 C92.9742414,14.3536372 92.8710515,14.2578452 92.7093721,14.106284" id="Fill-21" fill="#010000"></path>
                    <path d="M67.4971595,3.79410136 C67.4596288,3.84003497 67.4431519,3.85234096 67.4372673,3.86859541 C66.1671737,7.34579588 64.9266992,10.833723 63.7217938,14.3343509 C63.6361402,14.5831689 63.7232323,14.6162701 63.9507049,14.6153039 C66.2479889,14.6045563 68.5453382,14.5997524 70.8426876,14.606728 C71.1228601,14.6075177 71.1360678,14.5347346 71.0544026,14.2940109 C70.0472199,11.3260286 69.0501065,8.35469007 68.0485469,5.38486513 C67.8716165,4.86005063 67.6860553,4.33819745 67.4971595,3.79410136 M67.2900215,0.655151242 C68.9134529,0.655151242 70.5368843,0.659560342 72.160185,0.650125527 C72.3887038,0.648767918 72.500119,0.70575718 72.5796265,0.938254942 C75.0224563,8.07217864 77.4725438,15.2036017 79.928189,22.3330504 C80.0186158,22.5954248 80.0179619,22.6891346 79.6962702,22.6853053 C77.8443854,22.6625484 75.9923044,22.6553754 74.1402888,22.6564941 C73.9241931,22.6566257 73.8411548,22.5840401 73.7833549,22.3870784 C73.5123362,21.4641287 73.2207214,20.5472334 72.9536911,19.623165 C72.8953682,19.4212677 72.8191953,19.3472343 72.601988,19.3465762 C69.1266717,19.3355864 65.6514208,19.3182132 62.1761699,19.2899818 C61.9217589,19.287876 61.8193668,19.3698063 61.7504515,19.6055944 C61.4961713,20.4764245 61.2159987,21.339621 60.9604108,22.2101221 C60.900584,22.4139278 60.8089803,22.4755236 60.5983115,22.4745365 C58.6916345,22.4655867 56.7849574,22.4645996 54.8782804,22.4746023 C54.6121001,22.4759843 54.6047117,22.4018192 54.6814077,22.1788636 C57.1155414,15.0996259 59.5456213,8.01900621 61.9672011,0.935425222 C62.0478202,0.699505471 62.1619815,0.649294378 62.3871657,0.650478912 C64.0214509,0.659165497 65.6557362,0.655151242 67.2900215,0.655151242" id="Fill-23" fill="#010100"></path>
                </g>
                <path d="M4.71101704,34.5960541 L1.48157371,34.5960541 L0.755312085,36.5618022 L0.154935812,36.5618022 L2.83242032,29.5122227 L3.37953741,29.5122227 L6.03765494,36.5618022 L5.43727866,36.5618022 L4.71101704,34.5960541 Z M1.67524347,34.0779874 L4.52218902,34.0779874 L3.11808322,30.2626931 L3.08903276,30.2626931 L1.67524347,34.0779874 Z M13.4369159,35.3707331 L13.5773265,35.8403823 L13.606377,35.8403823 L13.7467875,35.3707331 L15.8626297,29.5122227 L16.4920565,29.5122227 L13.8629894,36.5618022 L13.3158723,36.5618022 L10.6868052,29.5122227 L11.316232,29.5122227 L13.4369159,35.3707331 Z M19.2427051,36.5618022 L18.6616958,36.5618022 L18.6616958,29.5122227 L19.2427051,29.5122227 L19.2427051,36.5618022 Z M26.2153546,34.8332995 C26.2153546,34.4491859 26.0717177,34.1352826 25.7844394,33.8915803 C25.4971611,33.6478779 24.9968526,33.4324225 24.2834987,33.2452074 C23.5120436,33.0515367 22.9278123,32.7997685 22.5307873,32.4898954 C22.1337623,32.1800222 21.9352528,31.7620225 21.9352528,31.2358836 C21.9352528,30.6968334 22.1571639,30.257853 22.6009926,29.9189292 C23.0448214,29.5800054 23.6153345,29.4105461 24.3125492,29.4105461 C25.0388144,29.4105461 25.6246596,29.6122834 26.0701023,30.0157641 C26.515545,30.4192448 26.7318074,30.9114839 26.718896,31.4924961 L26.7043708,31.5215465 L26.1717789,31.5215465 C26.1717789,31.0502811 26.0047404,30.6629454 25.6706584,30.3595279 C25.3365764,30.0561105 24.8838779,29.904404 24.3125492,29.904404 C23.7476762,29.904404 23.306275,30.0302881 22.9883322,30.28206 C22.6703894,30.533832 22.5114204,30.8469283 22.5114204,31.2213584 C22.5114204,31.5764214 22.6582851,31.8725718 22.9520191,32.1098184 C23.245753,32.3470651 23.7525172,32.556065 24.4723267,32.7368243 C25.2308704,32.930495 25.8078392,33.1919466 26.2032503,33.5211869 C26.5986614,33.8504271 26.7963639,34.2845658 26.7963639,34.823616 C26.7963639,35.3852612 26.5663834,35.8323111 26.1064154,36.1647792 C25.6464474,36.4972472 25.0597953,36.6634788 24.3464414,36.6634788 C23.6427711,36.6634788 23.0286827,36.4867569 22.5041578,36.1333078 C21.9796328,35.7798587 21.7254438,35.2642181 21.7415831,34.5863706 L21.7512665,34.5573201 L22.2838584,34.5573201 C22.2838584,35.1060538 22.4888235,35.5127563 22.8987599,35.7774396 C23.3086963,36.042123 23.791252,36.1744626 24.3464414,36.1744626 C24.9048587,36.1744626 25.3559433,36.0518064 25.6997089,35.8064901 C26.0434744,35.5611738 26.2153546,35.2367802 26.2153546,34.8332995 Z M34.0353094,29.5122227 L34.0353094,34.2910242 C34.0353094,35.0592514 33.8004871,35.6467105 33.3308356,36.053419 C32.8611841,36.4601276 32.2487096,36.6634788 31.4933937,36.6634788 C30.7477614,36.6634788 30.1441633,36.4593206 29.6825814,36.0509982 C29.2209995,35.6426757 28.990212,35.0560236 28.990212,34.2910242 L28.990212,29.5122227 L29.5712213,29.5122227 L29.5712213,34.2910242 C29.5712213,34.8914034 29.7487501,35.3553993 30.1038131,35.6830256 C30.4588762,36.0106519 30.922065,36.1744626 31.4933937,36.1744626 C32.0744059,36.1744626 32.5472782,36.0114589 32.9120247,35.6854465 C33.2767713,35.3594341 33.4591418,34.8946313 33.4591418,34.2910242 L33.4591418,29.5122227 L34.0353094,29.5122227 Z M40.4027409,34.5960541 L37.1732976,34.5960541 L36.4470359,36.5618022 L35.8466597,36.5618022 L38.5241442,29.5122227 L39.0712613,29.5122227 L41.7293788,36.5618022 L41.1290025,36.5618022 L40.4027409,34.5960541 Z M37.3669673,34.0779874 L40.2139129,34.0779874 L38.8098071,30.2626931 L38.7807566,30.2626931 L37.3669673,34.0779874 Z M44.3541421,36.072786 L47.8401979,36.072786 L47.8401979,36.5618022 L43.7731328,36.5618022 L43.7731328,29.5122227 L44.3541421,29.5122227 L44.3541421,36.072786 Z M57.3068836,33.1483726 L53.9128209,33.1483726 L53.9128209,36.072786 L57.8007415,36.072786 L57.8007415,36.5618022 L53.3366534,36.5618022 L53.3366534,29.5122227 L57.7765328,29.5122227 L57.7765328,30.0060806 L53.9128209,30.0060806 L53.9128209,32.6545147 L57.3068836,32.6545147 L57.3068836,33.1483726 Z M62.1297987,32.5237876 L64.1197555,29.5122227 L64.8218084,29.5122227 L62.4784043,32.988595 L64.8992764,36.5618022 L64.2069069,36.5618022 L62.1394822,33.4534024 L60.0768992,36.5618022 L59.3748463,36.5618022 L61.7957184,32.988595 L59.4474725,29.5122227 L60.1495254,29.5122227 L62.1297987,32.5237876 Z M67.6353998,33.632547 L67.6353998,36.5618022 L67.0592322,36.5618022 L67.0592322,29.5122227 L69.484946,29.5122227 C70.2241227,29.5122227 70.7962497,29.7002419 71.2013443,30.0762859 C71.6064389,30.4523299 71.8089832,30.9502176 71.8089832,31.569964 C71.8089832,32.196166 71.6064389,32.6964746 71.2013443,33.0709047 C70.7962497,33.4453347 70.2241227,33.632547 69.484946,33.632547 L67.6353998,33.632547 Z M67.6353998,33.1386891 L69.484946,33.1386891 C70.0659582,33.1386891 70.5025178,32.9910174 70.7946378,32.6956695 C71.0867578,32.4003216 71.2328157,32.028318 71.2328157,31.5796475 C71.2328157,31.1277491 71.0875648,30.7525177 70.7970587,30.4539419 C70.5065526,30.1553662 70.0691861,30.0060806 69.484946,30.0060806 L67.6353998,30.0060806 L67.6353998,33.1386891 Z M78.1279973,33.1483726 L74.7339346,33.1483726 L74.7339346,36.072786 L78.6218552,36.072786 L78.6218552,36.5618022 L74.1577671,36.5618022 L74.1577671,29.5122227 L78.5976465,29.5122227 L78.5976465,30.0060806 L74.7339346,30.0060806 L74.7339346,32.6545147 L78.1279973,32.6545147 L78.1279973,33.1483726 Z M81.3967125,33.3759345 L81.3967125,36.5618022 L80.820545,36.5618022 L80.820545,29.5170645 L83.2075248,29.5170645 C83.9628407,29.5170645 84.5422303,29.6824891 84.945711,30.0133432 C85.3491917,30.3441974 85.550929,30.82756 85.550929,31.4634456 C85.550929,31.8378757 85.4427978,32.1727596 85.2265321,32.4681075 C85.0102665,32.7634554 84.7052397,32.9789108 84.3114425,33.1144804 C84.7472017,33.2242271 85.0611049,33.4203158 85.2531617,33.7027523 C85.4452185,33.9851887 85.5412455,34.3394395 85.5412455,34.7655151 L85.5412455,35.428834 C85.5412455,35.6483275 85.5670679,35.8452232 85.6187134,36.0195268 C85.6703589,36.1938305 85.7558956,36.3358536 85.8753259,36.4456003 L85.8753259,36.5618022 L85.2846331,36.5618022 C85.1652028,36.4455997 85.0812801,36.282596 85.0328624,36.072786 C84.9844447,35.8629761 84.9602362,35.6450997 84.9602362,35.4191506 L84.9602362,34.7751986 C84.9602362,34.3426673 84.820634,34.0013277 84.5414253,33.7511697 C84.2622167,33.5010117 83.8724602,33.3759345 83.3721441,33.3759345 L81.3967125,33.3759345 Z M81.3967125,32.8820766 L83.1348987,32.8820766 C83.7707843,32.8820766 84.235587,32.7537717 84.529321,32.497158 C84.8230549,32.2405443 84.9699197,31.894363 84.9699197,31.4586039 C84.9699197,30.9937941 84.8238619,30.6363156 84.5317419,30.3861575 C84.2396218,30.1359995 83.7982206,30.0109224 83.2075248,30.0109224 L81.3967125,30.0109224 L81.3967125,32.8820766 Z M89.032681,36.5618022 L88.4516717,36.5618022 L88.4516717,29.5122227 L89.032681,29.5122227 L89.032681,36.5618022 Z M95.9423879,33.1483726 L92.5483252,33.1483726 L92.5483252,36.072786 L96.4362458,36.072786 L96.4362458,36.5618022 L91.9721577,36.5618022 L91.9721577,29.5122227 L96.412037,29.5122227 L96.412037,30.0060806 L92.5483252,30.0060806 L92.5483252,32.6545147 L95.9423879,32.6545147 L95.9423879,33.1483726 Z M103.839811,36.5618022 L103.263643,36.5618022 L99.2595206,30.4999385 L99.2304701,30.5047803 L99.2304701,36.5618022 L98.6494608,36.5618022 L98.6494608,29.5122227 L99.2304701,29.5122227 L103.234592,35.5644029 L103.263643,35.5595611 L103.263643,29.5122227 L103.839811,29.5122227 L103.839811,36.5618022 Z M111.509671,34.3588086 L111.519355,34.3878591 C111.458026,35.0947572 111.206257,35.6507453 110.764043,36.0558399 C110.321828,36.4609345 109.729527,36.6634788 108.987122,36.6634788 C108.202756,36.6634788 107.570108,36.3802396 107.089159,35.8137527 C106.60821,35.2472658 106.367739,34.5137489 106.367739,33.61318 L106.367739,32.4656866 C106.367739,31.5683456 106.60821,30.8348287 107.089159,30.2651139 C107.570108,29.6953992 108.202756,29.4105461 108.987122,29.4105461 C109.735983,29.4105461 110.329897,29.6090556 110.768884,30.0060806 C111.207871,30.4031056 111.458026,30.9615145 111.519355,31.6813241 L111.509671,31.7103746 L110.967396,31.7103746 C110.889928,31.1261345 110.688997,30.6790846 110.364599,30.3692114 C110.0402,30.0593383 109.581046,29.904404 108.987122,29.904404 C108.370604,29.904404 107.875944,30.143261 107.503128,30.6209821 C107.130312,31.0987033 106.943906,31.7103708 106.943906,32.4560031 L106.943906,33.61318 C106.943906,34.3684959 107.130312,34.9841982 107.503128,35.4603054 C107.875944,35.9364126 108.370604,36.1744626 108.987122,36.1744626 C109.581046,36.1744626 110.041007,36.0227562 110.36702,35.7193387 C110.693032,35.4159212 110.893155,34.9624157 110.967396,34.3588086 L111.509671,34.3588086 Z M117.944887,33.1483726 L114.550824,33.1483726 L114.550824,36.072786 L118.438745,36.072786 L118.438745,36.5618022 L113.974657,36.5618022 L113.974657,29.5122227 L118.414536,29.5122227 L118.414536,30.0060806 L114.550824,30.0060806 L114.550824,32.6545147 L117.944887,32.6545147 L117.944887,33.1483726 Z" id="AVISUALEXPERIENCE" fill="#000000" fill-rule="nonzero"></path>
            </g>
        </g>
    </g>
</svg>